<?xml version="1.0" encoding="utf-8" standalone="no"?>
<!DOCTYPE svg PUBLIC "-//W3C//DTD SVG 1.1//EN"
  "http://www.w3.org/Graphics/SVG/1.1/DTD/svg11.dtd">
<!-- Created with matplotlib (https://matplotlib.org/) -->
<svg height="144pt" version="1.1" viewBox="0 0 144 144" width="144pt" xmlns="http://www.w3.org/2000/svg" xmlns:xlink="http://www.w3.org/1999/xlink">
 <metadata>
  <rdf:RDF xmlns:cc="http://creativecommons.org/ns#" xmlns:dc="http://purl.org/dc/elements/1.1/" xmlns:rdf="http://www.w3.org/1999/02/22-rdf-syntax-ns#">
   <cc:Work>
    <dc:type rdf:resource="http://purl.org/dc/dcmitype/StillImage"/>
    <dc:date>2022-10-23T16:18:00.717000</dc:date>
    <dc:format>image/svg+xml</dc:format>
    <dc:creator>
     <cc:Agent>
      <dc:title>Matplotlib v3.3.3, https://matplotlib.org/</dc:title>
     </cc:Agent>
    </dc:creator>
   </cc:Work>
  </rdf:RDF>
 </metadata>
 <defs>
  <style type="text/css">*{stroke-linecap:butt;stroke-linejoin:round;}</style>
 </defs>
 <g id="figure_1">
  <g id="patch_1">
   <path d="M 0 144 
L 144 144 
L 144 0 
L 0 0 
z
" style="fill:#ffffff;"/>
  </g>
  <g id="axes_1">
   <g id="patch_2">
    <path clip-path="url(#pe2711cab31)" d="M 72 72 
L 99.998819 72 
L 99.998819 44.001181 
L 72 44.001181 
z
" style="fill:#d3d3d3;"/>
   </g>
   <g id="patch_3">
    <path clip-path="url(#pe2711cab31)" d="M 72 127.997639 
L 99.998819 127.997639 
L 99.998819 99.998819 
L 72 99.998819 
z
" style="fill:#d3d3d3;"/>
   </g>
   <g id="patch_4">
    <path clip-path="url(#pe2711cab31)" d="M 99.998819 72 
L 127.997639 72 
L 127.997639 44.001181 
L 99.998819 44.001181 
z
" style="fill:#d3d3d3;"/>
   </g>
   <g id="patch_5">
    <path clip-path="url(#pe2711cab31)" d="M 99.998819 127.997639 
L 127.997639 127.997639 
L 127.997639 99.998819 
L 99.998819 99.998819 
z
" style="fill:#d3d3d3;"/>
   </g>
   <g id="patch_6">
    <path clip-path="url(#pe2711cab31)" d="M 16.002361 72 
L 44.001181 72 
L 44.001181 44.001181 
L 16.002361 44.001181 
z
" style="fill:#d3d3d3;"/>
   </g>
   <g id="patch_7">
    <path clip-path="url(#pe2711cab31)" d="M 16.002361 127.997639 
L 44.001181 127.997639 
L 44.001181 99.998819 
L 16.002361 99.998819 
z
" style="fill:#d3d3d3;"/>
   </g>
   <g id="patch_8">
    <path clip-path="url(#pe2711cab31)" d="M 72 99.998819 
L 99.998819 99.998819 
L 99.998819 72 
L 72 72 
z
" style="fill:#d3d3d3;"/>
   </g>
   <g id="patch_9">
    <path clip-path="url(#pe2711cab31)" d="M 16.002361 99.998819 
L 44.001181 99.998819 
L 44.001181 72 
L 16.002361 72 
z
" style="fill:#d3d3d3;"/>
   </g>
   <g id="patch_10">
    <path clip-path="url(#pe2711cab31)" d="M 99.998819 99.998819 
L 127.997639 99.998819 
L 127.997639 72 
L 99.998819 72 
z
"/>
   </g>
   <g id="line2d_1">
    <path clip-path="url(#pe2711cab31)" d="M 16.002361 127.997639 
L 127.997639 127.997639 
L 127.997639 16.002361 
L 16.002361 16.002361 
L 16.002361 127.997639 
" style="fill:none;stroke:#000000;stroke-linecap:square;stroke-width:1.5;"/>
   </g>
   <g id="line2d_2">
    <path clip-path="url(#pe2711cab31)" d="M 16.002361 127.997639 
L 127.997639 127.997639 
" style="fill:none;stroke:#000000;stroke-linecap:square;stroke-width:4;"/>
   </g>
   <g id="line2d_3">
    <path clip-path="url(#pe2711cab31)" d="M 16.002361 99.998819 
L 127.997639 99.998819 
" style="fill:none;stroke:#000000;stroke-linecap:square;stroke-width:4;"/>
   </g>
   <g id="line2d_4">
    <path clip-path="url(#pe2711cab31)" d="M 16.002361 72 
L 127.997639 72 
" style="fill:none;stroke:#000000;stroke-linecap:square;stroke-width:4;"/>
   </g>
   <g id="line2d_5">
    <path clip-path="url(#pe2711cab31)" d="M 16.002361 44.001181 
L 127.997639 44.001181 
" style="fill:none;stroke:#000000;stroke-linecap:square;stroke-width:4;"/>
   </g>
   <g id="line2d_6">
    <path clip-path="url(#pe2711cab31)" d="M 16.002361 16.002361 
L 127.997639 16.002361 
" style="fill:none;stroke:#000000;stroke-linecap:square;stroke-width:4;"/>
   </g>
   <g id="line2d_7">
    <path clip-path="url(#pe2711cab31)" d="M 16.002361 127.997639 
L 16.002361 16.002361 
" style="fill:none;stroke:#000000;stroke-linecap:square;stroke-width:4;"/>
   </g>
   <g id="line2d_8">
    <path clip-path="url(#pe2711cab31)" d="M 44.001181 127.997639 
L 44.001181 16.002361 
" style="fill:none;stroke:#000000;stroke-linecap:square;stroke-width:4;"/>
   </g>
   <g id="line2d_9">
    <path clip-path="url(#pe2711cab31)" d="M 72 127.997639 
L 72 16.002361 
" style="fill:none;stroke:#000000;stroke-linecap:square;stroke-width:4;"/>
   </g>
   <g id="line2d_10">
    <path clip-path="url(#pe2711cab31)" d="M 99.998819 127.997639 
L 99.998819 16.002361 
" style="fill:none;stroke:#000000;stroke-linecap:square;stroke-width:4;"/>
   </g>
   <g id="line2d_11">
    <path clip-path="url(#pe2711cab31)" d="M 127.997639 127.997639 
L 127.997639 16.002361 
" style="fill:none;stroke:#000000;stroke-linecap:square;stroke-width:4;"/>
   </g>
  </g>
 </g>
 <defs>
  <clipPath id="pe2711cab31">
   <rect height="122.4" width="122.4" x="10.8" y="10.8"/>
  </clipPath>
 </defs>
</svg>
