<?xml version="1.0" encoding="utf-8" standalone="no"?>
<!DOCTYPE svg PUBLIC "-//W3C//DTD SVG 1.1//EN"
  "http://www.w3.org/Graphics/SVG/1.1/DTD/svg11.dtd">
<!-- Created with matplotlib (https://matplotlib.org/) -->
<svg height="288pt" version="1.1" viewBox="0 0 288 288" width="288pt" xmlns="http://www.w3.org/2000/svg" xmlns:xlink="http://www.w3.org/1999/xlink">
 <metadata>
  <rdf:RDF xmlns:cc="http://creativecommons.org/ns#" xmlns:dc="http://purl.org/dc/elements/1.1/" xmlns:rdf="http://www.w3.org/1999/02/22-rdf-syntax-ns#">
   <cc:Work>
    <dc:type rdf:resource="http://purl.org/dc/dcmitype/StillImage"/>
    <dc:date>2022-10-23T16:22:07.133000</dc:date>
    <dc:format>image/svg+xml</dc:format>
    <dc:creator>
     <cc:Agent>
      <dc:title>Matplotlib v3.3.3, https://matplotlib.org/</dc:title>
     </cc:Agent>
    </dc:creator>
   </cc:Work>
  </rdf:RDF>
 </metadata>
 <defs>
  <style type="text/css">*{stroke-linecap:butt;stroke-linejoin:round;}</style>
 </defs>
 <g id="figure_1">
  <g id="patch_1">
   <path d="M 0 288 
L 288 288 
L 288 0 
L 0 0 
z
" style="fill:#ffffff;"/>
  </g>
  <g id="axes_1">
   <g id="patch_2">
    <path clip-path="url(#pb083f410ee)" d="M 22.122786 83.061393 
L 83.061393 83.061393 
L 83.061393 22.122786 
L 22.122786 22.122786 
z
"/>
   </g>
   <g id="patch_3">
    <path clip-path="url(#pb083f410ee)" d="M 144 83.061393 
L 204.938607 83.061393 
L 204.938607 22.122786 
L 144 22.122786 
z
"/>
   </g>
   <g id="patch_4">
    <path clip-path="url(#pb083f410ee)" d="M 204.938607 144 
L 265.877214 144 
L 265.877214 83.061393 
L 204.938607 83.061393 
z
"/>
   </g>
   <g id="patch_5">
    <path clip-path="url(#pb083f410ee)" d="M 83.061393 204.938607 
L 144 204.938607 
L 144 144 
L 83.061393 144 
z
"/>
   </g>
   <g id="patch_6">
    <path clip-path="url(#pb083f410ee)" d="M 144 204.938607 
L 204.938607 204.938607 
L 204.938607 144 
L 144 144 
z
"/>
   </g>
   <g id="patch_7">
    <path clip-path="url(#pb083f410ee)" d="M 83.061393 265.877214 
L 144 265.877214 
L 144 204.938607 
L 83.061393 204.938607 
z
"/>
   </g>
   <g id="patch_8">
    <path clip-path="url(#pb083f410ee)" d="M 204.938607 265.877214 
L 265.877214 265.877214 
L 265.877214 204.938607 
L 204.938607 204.938607 
z
"/>
   </g>
   <g id="line2d_1">
    <path clip-path="url(#pb083f410ee)" d="M 22.122786 265.877214 
L 265.877214 265.877214 
L 265.877214 22.122786 
L 22.122786 22.122786 
L 22.122786 265.877214 
" style="fill:none;stroke:#000000;stroke-linecap:square;stroke-width:1.5;"/>
   </g>
   <g id="line2d_2">
    <path clip-path="url(#pb083f410ee)" d="M 22.122786 265.877214 
L 265.877214 265.877214 
" style="fill:none;stroke:#000000;stroke-linecap:square;stroke-width:4;"/>
   </g>
   <g id="line2d_3">
    <path clip-path="url(#pb083f410ee)" d="M 22.122786 204.938607 
L 265.877214 204.938607 
" style="fill:none;stroke:#000000;stroke-linecap:square;stroke-width:4;"/>
   </g>
   <g id="line2d_4">
    <path clip-path="url(#pb083f410ee)" d="M 22.122786 144 
L 265.877214 144 
" style="fill:none;stroke:#000000;stroke-linecap:square;stroke-width:4;"/>
   </g>
   <g id="line2d_5">
    <path clip-path="url(#pb083f410ee)" d="M 22.122786 83.061393 
L 265.877214 83.061393 
" style="fill:none;stroke:#000000;stroke-linecap:square;stroke-width:4;"/>
   </g>
   <g id="line2d_6">
    <path clip-path="url(#pb083f410ee)" d="M 22.122786 22.122786 
L 265.877214 22.122786 
" style="fill:none;stroke:#000000;stroke-linecap:square;stroke-width:4;"/>
   </g>
   <g id="line2d_7">
    <path clip-path="url(#pb083f410ee)" d="M 22.122786 265.877214 
L 22.122786 22.122786 
" style="fill:none;stroke:#000000;stroke-linecap:square;stroke-width:4;"/>
   </g>
   <g id="line2d_8">
    <path clip-path="url(#pb083f410ee)" d="M 83.061393 265.877214 
L 83.061393 22.122786 
" style="fill:none;stroke:#000000;stroke-linecap:square;stroke-width:4;"/>
   </g>
   <g id="line2d_9">
    <path clip-path="url(#pb083f410ee)" d="M 144 265.877214 
L 144 22.122786 
" style="fill:none;stroke:#000000;stroke-linecap:square;stroke-width:4;"/>
   </g>
   <g id="line2d_10">
    <path clip-path="url(#pb083f410ee)" d="M 204.938607 265.877214 
L 204.938607 22.122786 
" style="fill:none;stroke:#000000;stroke-linecap:square;stroke-width:4;"/>
   </g>
   <g id="line2d_11">
    <path clip-path="url(#pb083f410ee)" d="M 265.877214 265.877214 
L 265.877214 22.122786 
" style="fill:none;stroke:#000000;stroke-linecap:square;stroke-width:4;"/>
   </g>
  </g>
 </g>
 <defs>
  <clipPath id="pb083f410ee">
   <rect height="266.4" width="266.4" x="10.8" y="10.8"/>
  </clipPath>
 </defs>
</svg>
