<?xml version="1.0" encoding="utf-8" standalone="no"?>
<!DOCTYPE svg PUBLIC "-//W3C//DTD SVG 1.1//EN"
  "http://www.w3.org/Graphics/SVG/1.1/DTD/svg11.dtd">
<svg height="432pt" version="1.1" viewBox="0 0 720 432" width="720pt" xmlns="http://www.w3.org/2000/svg" xmlns:xlink="http://www.w3.org/1999/xlink">
 <metadata>
  <rdf:RDF xmlns:cc="http://creativecommons.org/ns#" xmlns:dc="http://purl.org/dc/elements/1.1/" xmlns:rdf="http://www.w3.org/1999/02/22-rdf-syntax-ns#">
   <cc:Work>
    <dc:type rdf:resource="http://purl.org/dc/dcmitype/StillImage"/>
    <dc:date>2022-10-22T17:35:45.674460</dc:date>
    <dc:format>image/svg+xml</dc:format>
    <dc:creator>
     <cc:Agent>
      <dc:title>Matplotlib v3.4.1, https://matplotlib.org/</dc:title>
     </cc:Agent>
    </dc:creator>
   </cc:Work>
  </rdf:RDF>
 </metadata>
 <defs>
  <style type="text/css">*{stroke-linecap:butt;stroke-linejoin:round;}</style>
 </defs>
 <g id="figure_1">
  <g id="patch_1">
   <path d="M 0 432 
L 720 432 
L 720 0 
L 0 0 
z
" style="fill:none;"/>
  </g>
  <g id="axes_1">
   <g id="patch_2">
    <path clip-path="url(#p7636388824)" d="M 360 239.529348 
C 366.240056 239.529348 372.225376 237.050148 376.637762 232.637762 
C 381.050148 228.225376 383.529348 222.240056 383.529348 216 
C 383.529348 209.759944 381.050148 203.774624 376.637762 199.362238 
C 372.225376 194.949852 366.240056 192.470652 360 192.470652 
C 353.759944 192.470652 347.774624 194.949852 343.362238 199.362238 
C 338.949852 203.774624 336.470652 209.759944 336.470652 216 
C 336.470652 222.240056 338.949852 228.225376 343.362238 232.637762 
C 347.774624 237.050148 353.759944 239.529348 360 239.529348 
z
" style="fill:#ffffff;stroke:#000000;stroke-linejoin:miter;stroke-width:2;"/>
   </g>
   <g id="patch_3">
    <path clip-path="url(#p7636388824)" d="M 454.117393 239.529348 
C 460.357449 239.529348 466.342769 237.050148 470.755155 232.637762 
C 475.167541 228.225376 477.646741 222.240056 477.646741 216 
C 477.646741 209.759944 475.167541 203.774624 470.755155 199.362238 
C 466.342769 194.949852 460.357449 192.470652 454.117393 192.470652 
C 447.877337 192.470652 441.892017 194.949852 437.479631 199.362238 
C 433.067245 203.774624 430.588045 209.759944 430.588045 216 
C 430.588045 222.240056 433.067245 228.225376 437.479631 232.637762 
C 441.892017 237.050148 447.877337 239.529348 454.117393 239.529348 
z
" style="fill:#ffffff;stroke:#000000;stroke-linejoin:miter;stroke-width:2;"/>
   </g>
   <g id="patch_4">
    <path clip-path="url(#p7636388824)" d="M 265.882607 158.021295 
C 272.122663 158.021295 278.107983 155.542094 282.520369 151.129709 
C 286.932755 146.717323 289.411955 140.732003 289.411955 134.491947 
C 289.411955 128.251891 286.932755 122.266571 282.520369 117.854185 
C 278.107983 113.441799 272.122663 110.962599 265.882607 110.962599 
C 259.642551 110.962599 253.657231 113.441799 249.244845 117.854185 
C 244.832459 122.266571 242.353259 128.251891 242.353259 134.491947 
C 242.353259 140.732003 244.832459 146.717323 249.244845 151.129709 
C 253.657231 155.542094 259.642551 158.021295 265.882607 158.021295 
z
" style="fill:#ffffff;stroke:#000000;stroke-linejoin:miter;stroke-width:2;"/>
   </g>
   <g id="patch_5">
    <path clip-path="url(#p7636388824)" d="M 360 158.021295 
C 366.240056 158.021295 372.225376 155.542094 376.637762 151.129709 
C 381.050148 146.717323 383.529348 140.732003 383.529348 134.491947 
C 383.529348 128.251891 381.050148 122.266571 376.637762 117.854185 
C 372.225376 113.441799 366.240056 110.962599 360 110.962599 
C 353.759944 110.962599 347.774624 113.441799 343.362238 117.854185 
C 338.949852 122.266571 336.470652 128.251891 336.470652 134.491947 
C 336.470652 140.732003 338.949852 146.717323 343.362238 151.129709 
C 347.774624 155.542094 353.759944 158.021295 360 158.021295 
z
" style="fill:#ffffff;stroke:#000000;stroke-linejoin:miter;stroke-width:2;"/>
   </g>
   <g id="patch_6">
    <path clip-path="url(#p7636388824)" d="M 501.176089 158.021295 
C 507.416145 158.021295 513.401465 155.542094 517.813851 151.129709 
C 522.226237 146.717323 524.705438 140.732003 524.705438 134.491947 
C 524.705438 128.251891 522.226237 122.266571 517.813851 117.854185 
C 513.401465 113.441799 507.416145 110.962599 501.176089 110.962599 
C 494.936033 110.962599 488.950714 113.441799 484.538328 117.854185 
C 480.125942 122.266571 477.646741 128.251891 477.646741 134.491947 
C 477.646741 140.732003 480.125942 146.717323 484.538328 151.129709 
C 488.950714 155.542094 494.936033 158.021295 501.176089 158.021295 
z
" style="fill:#ffffff;stroke:#000000;stroke-linejoin:miter;stroke-width:2;"/>
   </g>
   <g id="patch_7">
    <path clip-path="url(#p7636388824)" d="M 265.882607 321.037401 
C 272.122663 321.037401 278.107983 318.558201 282.520369 314.145815 
C 286.932755 309.733429 289.411955 303.748109 289.411955 297.508053 
C 289.411955 291.267997 286.932755 285.282677 282.520369 280.870291 
C 278.107983 276.457906 272.122663 273.978705 265.882607 273.978705 
C 259.642551 273.978705 253.657231 276.457906 249.244845 280.870291 
C 244.832459 285.282677 242.353259 291.267997 242.353259 297.508053 
C 242.353259 303.748109 244.832459 309.733429 249.244845 314.145815 
C 253.657231 318.558201 259.642551 321.037401 265.882607 321.037401 
z
" style="fill:#ffffff;stroke:#000000;stroke-linejoin:miter;stroke-width:2;"/>
   </g>
   <g id="patch_8">
    <path clip-path="url(#p7636388824)" d="M 360 321.037401 
C 366.240056 321.037401 372.225376 318.558201 376.637762 314.145815 
C 381.050148 309.733429 383.529348 303.748109 383.529348 297.508053 
C 383.529348 291.267997 381.050148 285.282677 376.637762 280.870291 
C 372.225376 276.457906 366.240056 273.978705 360 273.978705 
C 353.759944 273.978705 347.774624 276.457906 343.362238 280.870291 
C 338.949852 285.282677 336.470652 291.267997 336.470652 297.508053 
C 336.470652 303.748109 338.949852 309.733429 343.362238 314.145815 
C 347.774624 318.558201 353.759944 321.037401 360 321.037401 
z
" style="fill:#ffffff;stroke:#000000;stroke-linejoin:miter;stroke-width:2;"/>
   </g>
   <g id="patch_9">
    <path clip-path="url(#p7636388824)" d="M 501.176089 321.037401 
C 507.416145 321.037401 513.401465 318.558201 517.813851 314.145815 
C 522.226237 309.733429 524.705438 303.748109 524.705438 297.508053 
C 524.705438 291.267997 522.226237 285.282677 517.813851 280.870291 
C 513.401465 276.457906 507.416145 273.978705 501.176089 273.978705 
C 494.936033 273.978705 488.950714 276.457906 484.538328 280.870291 
C 480.125942 285.282677 477.646741 291.267997 477.646741 297.508053 
C 477.646741 303.748109 480.125942 309.733429 484.538328 314.145815 
C 488.950714 318.558201 494.936033 321.037401 501.176089 321.037401 
z
" style="fill:#ffffff;stroke:#000000;stroke-linejoin:miter;stroke-width:2;"/>
   </g>
   <g id="patch_10">
    <path clip-path="url(#p7636388824)" d="M 171.765214 321.037401 
C 178.00527 321.037401 183.99059 318.558201 188.402976 314.145815 
C 192.815362 309.733429 195.294562 303.748109 195.294562 297.508053 
C 195.294562 291.267997 192.815362 285.282677 188.402976 280.870291 
C 183.99059 276.457906 178.00527 273.978705 171.765214 273.978705 
C 165.525158 273.978705 159.539839 276.457906 155.127453 280.870291 
C 150.715067 285.282677 148.235866 291.267997 148.235866 297.508053 
C 148.235866 303.748109 150.715067 309.733429 155.127453 314.145815 
C 159.539839 318.558201 165.525158 321.037401 171.765214 321.037401 
z
" style="fill:#add8e6;stroke:#0000ff;stroke-linejoin:miter;stroke-width:2;"/>
   </g>
   <g id="patch_11">
    <path clip-path="url(#p7636388824)" d="M 548.234786 76.513242 
C 554.474842 76.513242 560.460161 74.034041 564.872547 69.621655 
C 569.284933 65.209269 571.764134 59.22395 571.764134 52.983894 
C 571.764134 46.743838 569.284933 40.758518 564.872547 36.346132 
C 560.460161 31.933746 554.474842 29.454545 548.234786 29.454545 
C 541.99473 29.454545 536.00941 31.933746 531.597024 36.346132 
C 527.184638 40.758518 524.705438 46.743838 524.705438 52.983894 
C 524.705438 59.22395 527.184638 65.209269 531.597024 69.621655 
C 536.00941 74.034041 541.99473 76.513242 548.234786 76.513242 
z
" style="fill:#add8e6;stroke:#0000ff;stroke-linejoin:miter;stroke-width:2;"/>
   </g>
   <g id="patch_12">
    <path clip-path="url(#p7636388824)" d="M 265.882607 239.529348 
C 272.122663 239.529348 278.107983 237.050148 282.520369 232.637762 
C 286.932755 228.225376 289.411955 222.240056 289.411955 216 
C 289.411955 209.759944 286.932755 203.774624 282.520369 199.362238 
C 278.107983 194.949852 272.122663 192.470652 265.882607 192.470652 
C 259.642551 192.470652 253.657231 194.949852 249.244845 199.362238 
C 244.832459 203.774624 242.353259 209.759944 242.353259 216 
C 242.353259 222.240056 244.832459 228.225376 249.244845 232.637762 
C 253.657231 237.050148 259.642551 239.529348 265.882607 239.529348 
z
" style="fill:#add8e6;stroke:#0000ff;stroke-linejoin:miter;stroke-width:2;"/>
   </g>
   <g id="patch_13">
    <path clip-path="url(#p7636388824)" d="M 454.117393 402.545455 
C 460.357449 402.545455 466.342769 400.066254 470.755155 395.653868 
C 475.167541 391.241482 477.646741 385.256162 477.646741 379.016106 
C 477.646741 372.77605 475.167541 366.790731 470.755155 362.378345 
C 466.342769 357.965959 460.357449 355.486758 454.117393 355.486758 
C 447.877337 355.486758 441.892017 357.965959 437.479631 362.378345 
C 433.067245 366.790731 430.588045 372.77605 430.588045 379.016106 
C 430.588045 385.256162 433.067245 391.241482 437.479631 395.653868 
C 441.892017 400.066254 447.877337 402.545455 454.117393 402.545455 
z
" style="fill:#add8e6;stroke:#0000ff;stroke-linejoin:miter;stroke-width:2;"/>
   </g>
   <g id="line2d_1">
    <path clip-path="url(#p7636388824)" d="M 380.377013 227.764674 
L 480.799076 285.743379 
" style="fill:none;stroke:#000000;stroke-linecap:square;stroke-width:1.5;"/>
   </g>
   <g id="line2d_2">
    <path clip-path="url(#p7636388824)" d="M 342.213485 231.403574 
L 283.669123 282.104479 
" style="fill:none;stroke:#000000;stroke-linecap:square;stroke-width:1.5;"/>
   </g>
   <g id="line2d_3">
    <path clip-path="url(#p7636388824)" d="M 383.529348 216 
L 430.588045 216 
" style="fill:none;stroke:#000000;stroke-linecap:square;stroke-width:1.5;"/>
   </g>
   <g id="line2d_4">
    <path clip-path="url(#p7636388824)" d="M 360 192.470652 
L 360 158.021295 
" style="fill:none;stroke:#000000;stroke-linecap:square;stroke-width:1.5;"/>
   </g>
   <g id="line2d_5">
    <path clip-path="url(#p7636388824)" d="M 360 239.529348 
L 360 273.978705 
" style="fill:none;stroke:#000000;stroke-linecap:square;stroke-width:1.5;"/>
   </g>
   <g id="line2d_6">
    <path clip-path="url(#p7636388824)" d="M 342.213485 200.596426 
L 283.669123 149.895521 
" style="fill:none;stroke:#000000;stroke-linecap:square;stroke-width:1.5;"/>
   </g>
   <g id="line2d_7">
    <path clip-path="url(#p7636388824)" d="M 380.377013 204.235326 
L 480.799076 146.256621 
" style="fill:none;stroke:#000000;stroke-linecap:square;stroke-width:1.5;"/>
   </g>
   <g id="line2d_8">
    <path clip-path="url(#p7636388824)" d="M 338.407989 225.349615 
L 193.357225 288.158438 
" style="fill:none;stroke:#0000ff;stroke-linecap:square;stroke-width:1.5;"/>
   </g>
   <g id="line2d_9">
    <path clip-path="url(#p7636388824)" d="M 377.786515 200.596426 
L 530.44827 68.387468 
" style="fill:none;stroke:#0000ff;stroke-linecap:square;stroke-width:1.5;"/>
   </g>
   <g id="line2d_10">
    <path clip-path="url(#p7636388824)" d="M 336.470652 216 
L 289.411955 216 
" style="fill:none;stroke:#0000ff;stroke-linecap:square;stroke-width:1.5;"/>
   </g>
   <g id="line2d_11">
    <path clip-path="url(#p7636388824)" d="M 371.764674 236.377013 
L 442.352719 358.639093 
" style="fill:none;stroke:#0000ff;stroke-linecap:square;stroke-width:1.5;"/>
   </g>
   <g id="line2d_12">
    <path clip-path="url(#p7636388824)" d="M 480.799076 285.743379 
L 380.377013 227.764674 
" style="fill:none;stroke:#000000;stroke-linecap:square;stroke-width:1.5;"/>
   </g>
   <g id="line2d_13">
    <path clip-path="url(#p7636388824)" d="M 489.411415 277.13104 
L 465.882067 236.377013 
" style="fill:none;stroke:#000000;stroke-linecap:square;stroke-width:1.5;"/>
   </g>
   <g id="line2d_14">
    <path clip-path="url(#p7636388824)" d="M 477.646741 297.508053 
L 383.529348 297.508053 
" style="fill:none;stroke:#000000;stroke-linecap:square;stroke-width:1.5;"/>
   </g>
   <g id="line2d_15">
    <path clip-path="url(#p7636388824)" d="M 501.176089 273.978705 
L 501.176089 158.021295 
" style="fill:none;stroke:#000000;stroke-linecap:square;stroke-width:1.5;"/>
   </g>
   <g id="line2d_16">
    <path clip-path="url(#p7636388824)" d="M 505.622718 274.402692 
L 543.788157 76.089255 
" style="fill:none;stroke:#0000ff;stroke-linecap:square;stroke-width:1.5;"/>
   </g>
   <g id="line2d_17">
    <path clip-path="url(#p7636388824)" d="M 489.411415 317.885066 
L 465.882067 358.639093 
" style="fill:none;stroke:#0000ff;stroke-linecap:square;stroke-width:1.5;"/>
   </g>
   <g id="line2d_18">
    <path clip-path="url(#p7636388824)" d="M 283.669123 282.104479 
L 342.213485 231.403574 
" style="fill:none;stroke:#000000;stroke-linecap:square;stroke-width:1.5;"/>
   </g>
   <g id="line2d_19">
    <path clip-path="url(#p7636388824)" d="M 289.411955 297.508053 
L 336.470652 297.508053 
" style="fill:none;stroke:#000000;stroke-linecap:square;stroke-width:1.5;"/>
   </g>
   <g id="line2d_20">
    <path clip-path="url(#p7636388824)" d="M 242.353259 297.508053 
L 195.294562 297.508053 
" style="fill:none;stroke:#0000ff;stroke-linecap:square;stroke-width:1.5;"/>
   </g>
   <g id="line2d_21">
    <path clip-path="url(#p7636388824)" d="M 287.474618 306.857668 
L 432.525382 369.666491 
" style="fill:none;stroke:#0000ff;stroke-linecap:square;stroke-width:1.5;"/>
   </g>
   <g id="line2d_22">
    <path clip-path="url(#p7636388824)" d="M 430.588045 216 
L 383.529348 216 
" style="fill:none;stroke:#000000;stroke-linecap:square;stroke-width:1.5;"/>
   </g>
   <g id="line2d_23">
    <path clip-path="url(#p7636388824)" d="M 465.882067 236.377013 
L 489.411415 277.13104 
" style="fill:none;stroke:#000000;stroke-linecap:square;stroke-width:1.5;"/>
   </g>
   <g id="line2d_24">
    <path clip-path="url(#p7636388824)" d="M 465.882067 195.622987 
L 489.411415 154.86896 
" style="fill:none;stroke:#000000;stroke-linecap:square;stroke-width:1.5;"/>
   </g>
   <g id="line2d_25">
    <path clip-path="url(#p7636388824)" d="M 454.117393 239.529348 
L 454.117393 355.486758 
" style="fill:none;stroke:#0000ff;stroke-linecap:square;stroke-width:1.5;"/>
   </g>
   <g id="line2d_26">
    <path clip-path="url(#p7636388824)" d="M 360 158.021295 
L 360 192.470652 
" style="fill:none;stroke:#000000;stroke-linecap:square;stroke-width:1.5;"/>
   </g>
   <g id="line2d_27">
    <path clip-path="url(#p7636388824)" d="M 381.592011 125.142332 
L 526.642775 62.333509 
" style="fill:none;stroke:#0000ff;stroke-linecap:square;stroke-width:1.5;"/>
   </g>
   <g id="line2d_28">
    <path clip-path="url(#p7636388824)" d="M 360 273.978705 
L 360 239.529348 
" style="fill:none;stroke:#000000;stroke-linecap:square;stroke-width:1.5;"/>
   </g>
   <g id="line2d_29">
    <path clip-path="url(#p7636388824)" d="M 383.529348 297.508053 
L 477.646741 297.508053 
" style="fill:none;stroke:#000000;stroke-linecap:square;stroke-width:1.5;"/>
   </g>
   <g id="line2d_30">
    <path clip-path="url(#p7636388824)" d="M 336.470652 297.508053 
L 289.411955 297.508053 
" style="fill:none;stroke:#000000;stroke-linecap:square;stroke-width:1.5;"/>
   </g>
   <g id="line2d_31">
    <path clip-path="url(#p7636388824)" d="M 377.786515 312.911627 
L 436.330877 363.612532 
" style="fill:none;stroke:#0000ff;stroke-linecap:square;stroke-width:1.5;"/>
   </g>
   <g id="line2d_32">
    <path clip-path="url(#p7636388824)" d="M 283.669123 149.895521 
L 342.213485 200.596426 
" style="fill:none;stroke:#000000;stroke-linecap:square;stroke-width:1.5;"/>
   </g>
   <g id="line2d_33">
    <path clip-path="url(#p7636388824)" d="M 480.799076 146.256621 
L 380.377013 204.235326 
" style="fill:none;stroke:#000000;stroke-linecap:square;stroke-width:1.5;"/>
   </g>
   <g id="line2d_34">
    <path clip-path="url(#p7636388824)" d="M 501.176089 158.021295 
L 501.176089 273.978705 
" style="fill:none;stroke:#000000;stroke-linecap:square;stroke-width:1.5;"/>
   </g>
   <g id="line2d_35">
    <path clip-path="url(#p7636388824)" d="M 489.411415 154.86896 
L 465.882067 195.622987 
" style="fill:none;stroke:#000000;stroke-linecap:square;stroke-width:1.5;"/>
   </g>
   <g id="line2d_36">
    <path clip-path="url(#p7636388824)" d="M 193.357225 288.158438 
L 338.407989 225.349615 
" style="fill:none;stroke:#0000ff;stroke-linecap:square;stroke-width:1.5;"/>
   </g>
   <g id="line2d_37">
    <path clip-path="url(#p7636388824)" d="M 195.294562 297.508053 
L 242.353259 297.508053 
" style="fill:none;stroke:#0000ff;stroke-linecap:square;stroke-width:1.5;"/>
   </g>
   <g id="line2d_38">
    <path clip-path="url(#p7636388824)" d="M 530.44827 68.387468 
L 377.786515 200.596426 
" style="fill:none;stroke:#0000ff;stroke-linecap:square;stroke-width:1.5;"/>
   </g>
   <g id="line2d_39">
    <path clip-path="url(#p7636388824)" d="M 543.788157 76.089255 
L 505.622718 274.402692 
" style="fill:none;stroke:#0000ff;stroke-linecap:square;stroke-width:1.5;"/>
   </g>
   <g id="line2d_40">
    <path clip-path="url(#p7636388824)" d="M 526.642775 62.333509 
L 381.592011 125.142332 
" style="fill:none;stroke:#0000ff;stroke-linecap:square;stroke-width:1.5;"/>
   </g>
   <g id="line2d_41">
    <path clip-path="url(#p7636388824)" d="M 289.411955 216 
L 336.470652 216 
" style="fill:none;stroke:#0000ff;stroke-linecap:square;stroke-width:1.5;"/>
   </g>
   <g id="line2d_42">
    <path clip-path="url(#p7636388824)" d="M 442.352719 358.639093 
L 371.764674 236.377013 
" style="fill:none;stroke:#0000ff;stroke-linecap:square;stroke-width:1.5;"/>
   </g>
   <g id="line2d_43">
    <path clip-path="url(#p7636388824)" d="M 465.882067 358.639093 
L 489.411415 317.885066 
" style="fill:none;stroke:#0000ff;stroke-linecap:square;stroke-width:1.5;"/>
   </g>
   <g id="line2d_44">
    <path clip-path="url(#p7636388824)" d="M 432.525382 369.666491 
L 287.474618 306.857668 
" style="fill:none;stroke:#0000ff;stroke-linecap:square;stroke-width:1.5;"/>
   </g>
   <g id="line2d_45">
    <path clip-path="url(#p7636388824)" d="M 454.117393 355.486758 
L 454.117393 239.529348 
" style="fill:none;stroke:#0000ff;stroke-linecap:square;stroke-width:1.5;"/>
   </g>
   <g id="line2d_46">
    <path clip-path="url(#p7636388824)" d="M 436.330877 363.612532 
L 377.786515 312.911627 
" style="fill:none;stroke:#0000ff;stroke-linecap:square;stroke-width:1.5;"/>
   </g>
   <g id="text_1">
    <!-- 1 -->
    <g transform="translate(352.5 223.207031)scale(0.3 -0.3)">
     <defs>
      <path d="M 750 3822 
L 1781 4325 
L 1884 4325 
L 1884 747 
Q 1884 391 1914 303 
Q 1944 216 2037 169 
Q 2131 122 2419 116 
L 2419 0 
L 825 0 
L 825 116 
Q 1125 122 1212 167 
Q 1300 213 1334 289 
Q 1369 366 1369 747 
L 1369 3034 
Q 1369 3497 1338 3628 
Q 1316 3728 1258 3775 
Q 1200 3822 1119 3822 
Q 1003 3822 797 3725 
L 750 3822 
z
" id="TimesNewRomanPSMT-31" transform="scale(0.015625)"/>
     </defs>
     <use xlink:href="#TimesNewRomanPSMT-31"/>
    </g>
   </g>
   <g id="text_2">
    <!-- 4 -->
    <g transform="translate(446.617393 223.207031)scale(0.3 -0.3)">
     <defs>
      <path d="M 2978 1563 
L 2978 1119 
L 2409 1119 
L 2409 0 
L 1894 0 
L 1894 1119 
L 100 1119 
L 100 1519 
L 2066 4325 
L 2409 4325 
L 2409 1563 
L 2978 1563 
z
M 1894 1563 
L 1894 3666 
L 406 1563 
L 1894 1563 
z
" id="TimesNewRomanPSMT-34" transform="scale(0.015625)"/>
     </defs>
     <use xlink:href="#TimesNewRomanPSMT-34"/>
    </g>
   </g>
   <g id="text_3">
    <!-- 7 -->
    <g transform="translate(258.382607 141.698978)scale(0.3 -0.3)">
     <defs>
      <path d="M 644 4238 
L 2916 4238 
L 2916 4119 
L 1503 -88 
L 1153 -88 
L 2419 3728 
L 1253 3728 
Q 900 3728 750 3644 
Q 488 3500 328 3200 
L 238 3234 
L 644 4238 
z
" id="TimesNewRomanPSMT-37" transform="scale(0.015625)"/>
     </defs>
     <use xlink:href="#TimesNewRomanPSMT-37"/>
    </g>
   </g>
   <g id="text_4">
    <!-- 5 -->
    <g transform="translate(352.5 141.698978)scale(0.3 -0.3)">
     <defs>
      <path d="M 2778 4238 
L 2534 3706 
L 1259 3706 
L 981 3138 
Q 1809 3016 2294 2522 
Q 2709 2097 2709 1522 
Q 2709 1188 2573 903 
Q 2438 619 2231 419 
Q 2025 219 1772 97 
Q 1413 -75 1034 -75 
Q 653 -75 479 54 
Q 306 184 306 341 
Q 306 428 378 495 
Q 450 563 559 563 
Q 641 563 702 538 
Q 763 513 909 409 
Q 1144 247 1384 247 
Q 1750 247 2026 523 
Q 2303 800 2303 1197 
Q 2303 1581 2056 1914 
Q 1809 2247 1375 2428 
Q 1034 2569 447 2591 
L 1259 4238 
L 2778 4238 
z
" id="TimesNewRomanPSMT-35" transform="scale(0.015625)"/>
     </defs>
     <use xlink:href="#TimesNewRomanPSMT-35"/>
    </g>
   </g>
   <g id="text_5">
    <!-- 8 -->
    <g transform="translate(493.676089 141.698978)scale(0.3 -0.3)">
     <defs>
      <path d="M 1228 2134 
Q 725 2547 579 2797 
Q 434 3047 434 3316 
Q 434 3728 753 4026 
Q 1072 4325 1600 4325 
Q 2113 4325 2425 4047 
Q 2738 3769 2738 3413 
Q 2738 3175 2569 2928 
Q 2400 2681 1866 2347 
Q 2416 1922 2594 1678 
Q 2831 1359 2831 1006 
Q 2831 559 2490 242 
Q 2150 -75 1597 -75 
Q 994 -75 656 303 
Q 388 606 388 966 
Q 388 1247 577 1523 
Q 766 1800 1228 2134 
z
M 1719 2469 
Q 2094 2806 2194 3001 
Q 2294 3197 2294 3444 
Q 2294 3772 2109 3958 
Q 1925 4144 1606 4144 
Q 1288 4144 1088 3959 
Q 888 3775 888 3528 
Q 888 3366 970 3203 
Q 1053 3041 1206 2894 
L 1719 2469 
z
M 1375 2016 
Q 1116 1797 991 1539 
Q 866 1281 866 981 
Q 866 578 1086 336 
Q 1306 94 1647 94 
Q 1984 94 2187 284 
Q 2391 475 2391 747 
Q 2391 972 2272 1150 
Q 2050 1481 1375 2016 
z
" id="TimesNewRomanPSMT-38" transform="scale(0.015625)"/>
     </defs>
     <use xlink:href="#TimesNewRomanPSMT-38"/>
    </g>
   </g>
   <g id="text_6">
    <!-- 3 -->
    <g transform="translate(258.382607 304.715084)scale(0.3 -0.3)">
     <defs>
      <path d="M 325 3431 
Q 506 3859 782 4092 
Q 1059 4325 1472 4325 
Q 1981 4325 2253 3994 
Q 2459 3747 2459 3466 
Q 2459 3003 1878 2509 
Q 2269 2356 2469 2072 
Q 2669 1788 2669 1403 
Q 2669 853 2319 450 
Q 1863 -75 997 -75 
Q 569 -75 414 31 
Q 259 138 259 259 
Q 259 350 332 419 
Q 406 488 509 488 
Q 588 488 669 463 
Q 722 447 909 348 
Q 1097 250 1169 231 
Q 1284 197 1416 197 
Q 1734 197 1970 444 
Q 2206 691 2206 1028 
Q 2206 1275 2097 1509 
Q 2016 1684 1919 1775 
Q 1784 1900 1550 2001 
Q 1316 2103 1072 2103 
L 972 2103 
L 972 2197 
Q 1219 2228 1467 2375 
Q 1716 2522 1828 2728 
Q 1941 2934 1941 3181 
Q 1941 3503 1739 3701 
Q 1538 3900 1238 3900 
Q 753 3900 428 3381 
L 325 3431 
z
" id="TimesNewRomanPSMT-33" transform="scale(0.015625)"/>
     </defs>
     <use xlink:href="#TimesNewRomanPSMT-33"/>
    </g>
   </g>
   <g id="text_7">
    <!-- 6 -->
    <g transform="translate(352.5 304.715084)scale(0.3 -0.3)">
     <defs>
      <path d="M 2869 4325 
L 2869 4209 
Q 2456 4169 2195 4045 
Q 1934 3922 1679 3669 
Q 1425 3416 1258 3105 
Q 1091 2794 978 2366 
Q 1428 2675 1881 2675 
Q 2316 2675 2634 2325 
Q 2953 1975 2953 1425 
Q 2953 894 2631 456 
Q 2244 -75 1606 -75 
Q 1172 -75 869 213 
Q 275 772 275 1663 
Q 275 2231 503 2743 
Q 731 3256 1154 3653 
Q 1578 4050 1965 4187 
Q 2353 4325 2688 4325 
L 2869 4325 
z
M 925 2138 
Q 869 1716 869 1456 
Q 869 1156 980 804 
Q 1091 453 1309 247 
Q 1469 100 1697 100 
Q 1969 100 2183 356 
Q 2397 613 2397 1088 
Q 2397 1622 2184 2012 
Q 1972 2403 1581 2403 
Q 1463 2403 1327 2353 
Q 1191 2303 925 2138 
z
" id="TimesNewRomanPSMT-36" transform="scale(0.015625)"/>
     </defs>
     <use xlink:href="#TimesNewRomanPSMT-36"/>
    </g>
   </g>
   <g id="text_8">
    <!-- 2 -->
    <g transform="translate(493.676089 304.715084)scale(0.3 -0.3)">
     <defs>
      <path d="M 2934 816 
L 2638 0 
L 138 0 
L 138 116 
Q 1241 1122 1691 1759 
Q 2141 2397 2141 2925 
Q 2141 3328 1894 3587 
Q 1647 3847 1303 3847 
Q 991 3847 742 3664 
Q 494 3481 375 3128 
L 259 3128 
Q 338 3706 661 4015 
Q 984 4325 1469 4325 
Q 1984 4325 2329 3994 
Q 2675 3663 2675 3213 
Q 2675 2891 2525 2569 
Q 2294 2063 1775 1497 
Q 997 647 803 472 
L 1909 472 
Q 2247 472 2383 497 
Q 2519 522 2628 598 
Q 2738 675 2819 816 
L 2934 816 
z
" id="TimesNewRomanPSMT-32" transform="scale(0.015625)"/>
     </defs>
     <use xlink:href="#TimesNewRomanPSMT-32"/>
    </g>
   </g>
   <g id="text_9">
    <!-- 9 -->
    <g style="fill:#0000ff;" transform="translate(164.265214 304.715084)scale(0.3 -0.3)">
     <defs>
      <path d="M 338 -88 
L 338 28 
Q 744 34 1094 217 
Q 1444 400 1770 856 
Q 2097 1313 2225 1859 
Q 1734 1544 1338 1544 
Q 891 1544 572 1889 
Q 253 2234 253 2806 
Q 253 3363 572 3797 
Q 956 4325 1575 4325 
Q 2097 4325 2469 3894 
Q 2925 3359 2925 2575 
Q 2925 1869 2578 1258 
Q 2231 647 1613 244 
Q 1109 -88 516 -88 
L 338 -88 
z
M 2275 2091 
Q 2331 2497 2331 2741 
Q 2331 3044 2228 3395 
Q 2125 3747 1936 3934 
Q 1747 4122 1506 4122 
Q 1228 4122 1018 3872 
Q 809 3622 809 3128 
Q 809 2469 1088 2097 
Q 1291 1828 1588 1828 
Q 1731 1828 1928 1897 
Q 2125 1966 2275 2091 
z
" id="TimesNewRomanPSMT-39" transform="scale(0.015625)"/>
     </defs>
     <use xlink:href="#TimesNewRomanPSMT-39"/>
    </g>
   </g>
   <g id="text_10">
    <!-- 10 -->
    <g style="fill:#0000ff;" transform="translate(533.234786 60.190925)scale(0.3 -0.3)">
     <defs>
      <path d="M 231 2094 
Q 231 2819 450 3342 
Q 669 3866 1031 4122 
Q 1313 4325 1613 4325 
Q 2100 4325 2488 3828 
Q 2972 3213 2972 2159 
Q 2972 1422 2759 906 
Q 2547 391 2217 158 
Q 1888 -75 1581 -75 
Q 975 -75 572 641 
Q 231 1244 231 2094 
z
M 844 2016 
Q 844 1141 1059 588 
Q 1238 122 1591 122 
Q 1759 122 1940 273 
Q 2122 425 2216 781 
Q 2359 1319 2359 2297 
Q 2359 3022 2209 3506 
Q 2097 3866 1919 4016 
Q 1791 4119 1609 4119 
Q 1397 4119 1231 3928 
Q 1006 3669 925 3112 
Q 844 2556 844 2016 
z
" id="TimesNewRomanPSMT-30" transform="scale(0.015625)"/>
     </defs>
     <use xlink:href="#TimesNewRomanPSMT-31"/>
     <use x="50" xlink:href="#TimesNewRomanPSMT-30"/>
    </g>
   </g>
   <g id="text_11">
    <!-- 11 -->
    <g style="fill:#0000ff;" transform="translate(251.445107 223.207031)scale(0.3 -0.3)">
     <use xlink:href="#TimesNewRomanPSMT-31"/>
     <use x="46.25" xlink:href="#TimesNewRomanPSMT-31"/>
    </g>
   </g>
   <g id="text_12">
    <!-- 12 -->
    <g style="fill:#0000ff;" transform="translate(439.117393 386.223138)scale(0.3 -0.3)">
     <use xlink:href="#TimesNewRomanPSMT-31"/>
     <use x="50" xlink:href="#TimesNewRomanPSMT-32"/>
    </g>
   </g>
  </g>
 </g>
 <defs>
  <clipPath id="p7636388824">
   <rect height="410.4" width="698.4" x="10.8" y="10.8"/>
  </clipPath>
 </defs>
</svg>
