<?xml version="1.0" encoding="utf-8" standalone="no"?>
<!DOCTYPE svg PUBLIC "-//W3C//DTD SVG 1.1//EN"
  "http://www.w3.org/Graphics/SVG/1.1/DTD/svg11.dtd">
<svg height="216pt" version="1.1" viewBox="0 0 288 216" width="288pt" xmlns="http://www.w3.org/2000/svg" xmlns:xlink="http://www.w3.org/1999/xlink">
 <metadata>
  <rdf:RDF xmlns:cc="http://creativecommons.org/ns#" xmlns:dc="http://purl.org/dc/elements/1.1/" xmlns:rdf="http://www.w3.org/1999/02/22-rdf-syntax-ns#">
   <cc:Work>
    <dc:type rdf:resource="http://purl.org/dc/dcmitype/StillImage"/>
    <dc:date>2022-10-22T17:35:13.011101</dc:date>
    <dc:format>image/svg+xml</dc:format>
    <dc:creator>
     <cc:Agent>
      <dc:title>Matplotlib v3.4.1, https://matplotlib.org/</dc:title>
     </cc:Agent>
    </dc:creator>
   </cc:Work>
  </rdf:RDF>
 </metadata>
 <defs>
  <style type="text/css">*{stroke-linecap:butt;stroke-linejoin:round;}</style>
 </defs>
 <g id="figure_1">
  <g id="patch_1">
   <path d="M 0 216 
L 288 216 
L 288 0 
L 0 0 
z
" style="fill:none;"/>
  </g>
  <g id="axes_1">
   <g id="patch_2">
    <path clip-path="url(#p7b6b9ad464)" d="M 123.818182 93.244394 
C 129.170463 93.244394 134.304248 91.120575 138.088882 87.340683 
C 141.873516 83.560791 144 78.433437 144 73.087862 
C 144 67.742287 141.873516 62.614934 138.088882 58.835041 
C 134.304248 55.055149 129.170463 52.93133 123.818182 52.93133 
C 118.465901 52.93133 113.332115 55.055149 109.547481 58.835041 
C 105.762847 62.614934 103.636364 67.742287 103.636364 73.087862 
C 103.636364 78.433437 105.762847 83.560791 109.547481 87.340683 
C 113.332115 91.120575 118.465901 93.244394 123.818182 93.244394 
z
" style="fill:none;stroke:#000000;stroke-linejoin:miter;"/>
   </g>
   <g id="patch_3">
    <path clip-path="url(#p7b6b9ad464)" d="M 204.545455 93.244394 
C 209.897735 93.244394 215.031521 91.120575 218.816155 87.340683 
C 222.600789 83.560791 224.727273 78.433437 224.727273 73.087862 
C 224.727273 67.742287 222.600789 62.614934 218.816155 58.835041 
C 215.031521 55.055149 209.897735 52.93133 204.545455 52.93133 
C 199.193174 52.93133 194.059388 55.055149 190.274754 58.835041 
C 186.49012 62.614934 184.363636 67.742287 184.363636 73.087862 
C 184.363636 78.433437 186.49012 83.560791 190.274754 87.340683 
C 194.059388 91.120575 199.193174 93.244394 204.545455 93.244394 
z
" style="fill:none;stroke:#000000;stroke-linejoin:miter;"/>
   </g>
   <g id="patch_4">
    <path clip-path="url(#p7b6b9ad464)" d="M 43.090909 163.06867 
C 48.44319 163.06867 53.576976 160.944851 57.36161 157.164959 
C 61.146244 153.385066 63.272727 148.257713 63.272727 142.912138 
C 63.272727 137.566563 61.146244 132.439209 57.36161 128.659317 
C 53.576976 124.879425 48.44319 122.755606 43.090909 122.755606 
C 37.738628 122.755606 32.604843 124.879425 28.820209 128.659317 
C 25.035575 132.439209 22.909091 137.566563 22.909091 142.912138 
C 22.909091 148.257713 25.035575 153.385066 28.820209 157.164959 
C 32.604843 160.944851 37.738628 163.06867 43.090909 163.06867 
z
" style="fill:none;stroke:#000000;stroke-linejoin:miter;"/>
   </g>
   <g id="patch_5">
    <path clip-path="url(#p7b6b9ad464)" d="M 244.909091 163.06867 
C 250.261372 163.06867 255.395157 160.944851 259.179791 157.164959 
C 262.964425 153.385066 265.090909 148.257713 265.090909 142.912138 
C 265.090909 137.566563 262.964425 132.439209 259.179791 128.659317 
C 255.395157 124.879425 250.261372 122.755606 244.909091 122.755606 
C 239.55681 122.755606 234.423024 124.879425 230.63839 128.659317 
C 226.853756 132.439209 224.727273 137.566563 224.727273 142.912138 
C 224.727273 148.257713 226.853756 153.385066 230.63839 157.164959 
C 234.423024 160.944851 239.55681 163.06867 244.909091 163.06867 
z
" style="fill:none;stroke:#000000;stroke-linejoin:miter;"/>
   </g>
   <g id="line2d_1">
    <path clip-path="url(#p7b6b9ad464)" d="M 141.296149 83.166128 
L 227.431124 132.833872 
" style="fill:none;stroke:#000000;stroke-linecap:square;stroke-width:1.5;"/>
   </g>
   <g id="line2d_2">
    <path clip-path="url(#p7b6b9ad464)" d="M 108.562161 86.28341 
L 58.34693 129.71659 
" style="fill:none;stroke:#000000;stroke-linecap:square;stroke-width:1.5;"/>
   </g>
   <g id="line2d_3">
    <path clip-path="url(#p7b6b9ad464)" d="M 144 73.087862 
L 184.363636 73.087862 
" style="fill:none;stroke:#000000;stroke-linecap:square;stroke-width:1.5;"/>
   </g>
   <g id="line2d_4">
    <path clip-path="url(#p7b6b9ad464)" d="M 227.431124 132.833872 
L 141.296149 83.166128 
" style="fill:none;stroke:#000000;stroke-linecap:square;stroke-width:1.5;"/>
   </g>
   <g id="line2d_5">
    <path clip-path="url(#p7b6b9ad464)" d="M 234.818182 125.456069 
L 214.636364 90.543931 
" style="fill:none;stroke:#000000;stroke-linecap:square;stroke-width:1.5;"/>
   </g>
   <g id="line2d_6">
    <path clip-path="url(#p7b6b9ad464)" d="M 58.34693 129.71659 
L 108.562161 86.28341 
" style="fill:none;stroke:#000000;stroke-linecap:square;stroke-width:1.5;"/>
   </g>
   <g id="line2d_7">
    <path clip-path="url(#p7b6b9ad464)" d="M 184.363636 73.087862 
L 144 73.087862 
" style="fill:none;stroke:#000000;stroke-linecap:square;stroke-width:1.5;"/>
   </g>
   <g id="line2d_8">
    <path clip-path="url(#p7b6b9ad464)" d="M 214.636364 90.543931 
L 234.818182 125.456069 
" style="fill:none;stroke:#000000;stroke-linecap:square;stroke-width:1.5;"/>
   </g>
   <g id="text_1">
    <!-- 1 -->
    <g transform="translate(116.318182 80.294893)scale(0.3 -0.3)">
     <defs>
      <path d="M 750 3822 
L 1781 4325 
L 1884 4325 
L 1884 747 
Q 1884 391 1914 303 
Q 1944 216 2037 169 
Q 2131 122 2419 116 
L 2419 0 
L 825 0 
L 825 116 
Q 1125 122 1212 167 
Q 1300 213 1334 289 
Q 1369 366 1369 747 
L 1369 3034 
Q 1369 3497 1338 3628 
Q 1316 3728 1258 3775 
Q 1200 3822 1119 3822 
Q 1003 3822 797 3725 
L 750 3822 
z
" id="TimesNewRomanPSMT-31" transform="scale(0.015625)"/>
     </defs>
     <use xlink:href="#TimesNewRomanPSMT-31"/>
    </g>
   </g>
   <g id="text_2">
    <!-- 4 -->
    <g transform="translate(197.045455 80.294893)scale(0.3 -0.3)">
     <defs>
      <path d="M 2978 1563 
L 2978 1119 
L 2409 1119 
L 2409 0 
L 1894 0 
L 1894 1119 
L 100 1119 
L 100 1519 
L 2066 4325 
L 2409 4325 
L 2409 1563 
L 2978 1563 
z
M 1894 1563 
L 1894 3666 
L 406 1563 
L 1894 1563 
z
" id="TimesNewRomanPSMT-34" transform="scale(0.015625)"/>
     </defs>
     <use xlink:href="#TimesNewRomanPSMT-34"/>
    </g>
   </g>
   <g id="text_3">
    <!-- 3 -->
    <g transform="translate(35.590909 150.119169)scale(0.3 -0.3)">
     <defs>
      <path d="M 325 3431 
Q 506 3859 782 4092 
Q 1059 4325 1472 4325 
Q 1981 4325 2253 3994 
Q 2459 3747 2459 3466 
Q 2459 3003 1878 2509 
Q 2269 2356 2469 2072 
Q 2669 1788 2669 1403 
Q 2669 853 2319 450 
Q 1863 -75 997 -75 
Q 569 -75 414 31 
Q 259 138 259 259 
Q 259 350 332 419 
Q 406 488 509 488 
Q 588 488 669 463 
Q 722 447 909 348 
Q 1097 250 1169 231 
Q 1284 197 1416 197 
Q 1734 197 1970 444 
Q 2206 691 2206 1028 
Q 2206 1275 2097 1509 
Q 2016 1684 1919 1775 
Q 1784 1900 1550 2001 
Q 1316 2103 1072 2103 
L 972 2103 
L 972 2197 
Q 1219 2228 1467 2375 
Q 1716 2522 1828 2728 
Q 1941 2934 1941 3181 
Q 1941 3503 1739 3701 
Q 1538 3900 1238 3900 
Q 753 3900 428 3381 
L 325 3431 
z
" id="TimesNewRomanPSMT-33" transform="scale(0.015625)"/>
     </defs>
     <use xlink:href="#TimesNewRomanPSMT-33"/>
    </g>
   </g>
   <g id="text_4">
    <!-- 2 -->
    <g transform="translate(237.409091 150.119169)scale(0.3 -0.3)">
     <defs>
      <path d="M 2934 816 
L 2638 0 
L 138 0 
L 138 116 
Q 1241 1122 1691 1759 
Q 2141 2397 2141 2925 
Q 2141 3328 1894 3587 
Q 1647 3847 1303 3847 
Q 991 3847 742 3664 
Q 494 3481 375 3128 
L 259 3128 
Q 338 3706 661 4015 
Q 984 4325 1469 4325 
Q 1984 4325 2329 3994 
Q 2675 3663 2675 3213 
Q 2675 2891 2525 2569 
Q 2294 2063 1775 1497 
Q 997 647 803 472 
L 1909 472 
Q 2247 472 2383 497 
Q 2519 522 2628 598 
Q 2738 675 2819 816 
L 2934 816 
z
" id="TimesNewRomanPSMT-32" transform="scale(0.015625)"/>
     </defs>
     <use xlink:href="#TimesNewRomanPSMT-32"/>
    </g>
   </g>
  </g>
 </g>
 <defs>
  <clipPath id="p7b6b9ad464">
   <rect height="194.4" width="266.4" x="10.8" y="10.8"/>
  </clipPath>
 </defs>
</svg>
