<?xml version="1.0" encoding="utf-8" standalone="no"?>
<!DOCTYPE svg PUBLIC "-//W3C//DTD SVG 1.1//EN"
  "http://www.w3.org/Graphics/SVG/1.1/DTD/svg11.dtd">
<svg height="288pt" version="1.1" viewBox="0 0 432 288" width="432pt" xmlns="http://www.w3.org/2000/svg" xmlns:xlink="http://www.w3.org/1999/xlink">
 <metadata>
  <rdf:RDF xmlns:cc="http://creativecommons.org/ns#" xmlns:dc="http://purl.org/dc/elements/1.1/" xmlns:rdf="http://www.w3.org/1999/02/22-rdf-syntax-ns#">
   <cc:Work>
    <dc:type rdf:resource="http://purl.org/dc/dcmitype/StillImage"/>
    <dc:date>2022-10-22T17:11:42.151371</dc:date>
    <dc:format>image/svg+xml</dc:format>
    <dc:creator>
     <cc:Agent>
      <dc:title>Matplotlib v3.4.1, https://matplotlib.org/</dc:title>
     </cc:Agent>
    </dc:creator>
   </cc:Work>
  </rdf:RDF>
 </metadata>
 <defs>
  <style type="text/css">*{stroke-linecap:butt;stroke-linejoin:round;}</style>
 </defs>
 <g id="figure_1">
  <g id="patch_1">
   <path d="M 0 288 
L 432 288 
L 432 0 
L 0 0 
z
" style="fill:none;"/>
  </g>
  <g id="axes_1">
   <g id="patch_2">
    <path clip-path="url(#p3079e57e23)" d="M 188.860328 171.125482 
C 196.057853 171.125482 202.961555 168.26737 208.050974 163.180612 
C 213.140393 158.093855 216 151.193762 216 144 
C 216 136.806238 213.140393 129.906145 208.050974 124.819388 
C 202.961555 119.73263 196.057853 116.874518 188.860328 116.874518 
C 181.662803 116.874518 174.759101 119.73263 169.669682 124.819388 
C 164.580264 129.906145 161.720657 136.806238 161.720657 144 
C 161.720657 151.193762 164.580264 158.093855 169.669682 163.180612 
C 174.759101 168.26737 181.662803 171.125482 188.860328 171.125482 
z
" style="fill:none;stroke:#000000;stroke-linejoin:miter;"/>
   </g>
   <g id="patch_3">
    <path clip-path="url(#p3079e57e23)" d="M 297.419015 171.125482 
C 304.61654 171.125482 311.520242 168.26737 316.609661 163.180612 
C 321.69908 158.093855 324.558687 151.193762 324.558687 144 
C 324.558687 136.806238 321.69908 129.906145 316.609661 124.819388 
C 311.520242 119.73263 304.61654 116.874518 297.419015 116.874518 
C 290.22149 116.874518 283.317788 119.73263 278.228369 124.819388 
C 273.13895 129.906145 270.279343 136.806238 270.279343 144 
C 270.279343 151.193762 273.13895 158.093855 278.228369 163.180612 
C 283.317788 168.26737 290.22149 171.125482 297.419015 171.125482 
z
" style="fill:none;stroke:#000000;stroke-linejoin:miter;"/>
   </g>
   <g id="patch_4">
    <path clip-path="url(#p3079e57e23)" d="M 80.301642 77.160055 
C 87.499167 77.160055 94.402869 74.301943 99.492287 69.215186 
C 104.581706 64.128428 107.441313 57.228335 107.441313 50.034573 
C 107.441313 42.840811 104.581706 35.940719 99.492287 30.853961 
C 94.402869 25.767203 87.499167 22.909091 80.301642 22.909091 
C 73.104117 22.909091 66.200414 25.767203 61.110996 30.853961 
C 56.021577 35.940719 53.16197 42.840811 53.16197 50.034573 
C 53.16197 57.228335 56.021577 64.128428 61.110996 69.215186 
C 66.200414 74.301943 73.104117 77.160055 80.301642 77.160055 
z
" style="fill:none;stroke:#000000;stroke-linejoin:miter;"/>
   </g>
   <g id="patch_5">
    <path clip-path="url(#p3079e57e23)" d="M 188.860328 77.160055 
C 196.057853 77.160055 202.961555 74.301943 208.050974 69.215186 
C 213.140393 64.128428 216 57.228335 216 50.034573 
C 216 42.840811 213.140393 35.940719 208.050974 30.853961 
C 202.961555 25.767203 196.057853 22.909091 188.860328 22.909091 
C 181.662803 22.909091 174.759101 25.767203 169.669682 30.853961 
C 164.580264 35.940719 161.720657 42.840811 161.720657 50.034573 
C 161.720657 57.228335 164.580264 64.128428 169.669682 69.215186 
C 174.759101 74.301943 181.662803 77.160055 188.860328 77.160055 
z
" style="fill:none;stroke:#000000;stroke-linejoin:miter;"/>
   </g>
   <g id="patch_6">
    <path clip-path="url(#p3079e57e23)" d="M 351.698358 77.160055 
C 358.895883 77.160055 365.799586 74.301943 370.889004 69.215186 
C 375.978423 64.128428 378.83803 57.228335 378.83803 50.034573 
C 378.83803 42.840811 375.978423 35.940719 370.889004 30.853961 
C 365.799586 25.767203 358.895883 22.909091 351.698358 22.909091 
C 344.500833 22.909091 337.597131 25.767203 332.507713 30.853961 
C 327.418294 35.940719 324.558687 42.840811 324.558687 50.034573 
C 324.558687 57.228335 327.418294 64.128428 332.507713 69.215186 
C 337.597131 74.301943 344.500833 77.160055 351.698358 77.160055 
z
" style="fill:none;stroke:#000000;stroke-linejoin:miter;"/>
   </g>
   <g id="patch_7">
    <path clip-path="url(#p3079e57e23)" d="M 80.301642 265.090909 
C 87.499167 265.090909 94.402869 262.232797 99.492287 257.146039 
C 104.581706 252.059281 107.441313 245.159189 107.441313 237.965427 
C 107.441313 230.771665 104.581706 223.871572 99.492287 218.784814 
C 94.402869 213.698057 87.499167 210.839945 80.301642 210.839945 
C 73.104117 210.839945 66.200414 213.698057 61.110996 218.784814 
C 56.021577 223.871572 53.16197 230.771665 53.16197 237.965427 
C 53.16197 245.159189 56.021577 252.059281 61.110996 257.146039 
C 66.200414 262.232797 73.104117 265.090909 80.301642 265.090909 
z
" style="fill:none;stroke:#000000;stroke-linejoin:miter;"/>
   </g>
   <g id="patch_8">
    <path clip-path="url(#p3079e57e23)" d="M 188.860328 265.090909 
C 196.057853 265.090909 202.961555 262.232797 208.050974 257.146039 
C 213.140393 252.059281 216 245.159189 216 237.965427 
C 216 230.771665 213.140393 223.871572 208.050974 218.784814 
C 202.961555 213.698057 196.057853 210.839945 188.860328 210.839945 
C 181.662803 210.839945 174.759101 213.698057 169.669682 218.784814 
C 164.580264 223.871572 161.720657 230.771665 161.720657 237.965427 
C 161.720657 245.159189 164.580264 252.059281 169.669682 257.146039 
C 174.759101 262.232797 181.662803 265.090909 188.860328 265.090909 
z
" style="fill:none;stroke:#000000;stroke-linejoin:miter;"/>
   </g>
   <g id="patch_9">
    <path clip-path="url(#p3079e57e23)" d="M 351.698358 265.090909 
C 358.895883 265.090909 365.799586 262.232797 370.889004 257.146039 
C 375.978423 252.059281 378.83803 245.159189 378.83803 237.965427 
C 378.83803 230.771665 375.978423 223.871572 370.889004 218.784814 
C 365.799586 213.698057 358.895883 210.839945 351.698358 210.839945 
C 344.500833 210.839945 337.597131 213.698057 332.507713 218.784814 
C 327.418294 223.871572 324.558687 230.771665 324.558687 237.965427 
C 324.558687 245.159189 327.418294 252.059281 332.507713 257.146039 
C 337.597131 262.232797 344.500833 265.090909 351.698358 265.090909 
z
" style="fill:none;stroke:#000000;stroke-linejoin:miter;"/>
   </g>
   <g id="line2d_1">
    <path clip-path="url(#p3079e57e23)" d="M 212.363973 157.562741 
L 328.194713 224.402686 
" style="fill:none;stroke:#000000;stroke-linecap:square;stroke-width:1.5;"/>
   </g>
   <g id="line2d_2">
    <path clip-path="url(#p3079e57e23)" d="M 168.344665 161.757797 
L 100.817305 220.20763 
" style="fill:none;stroke:#000000;stroke-linecap:square;stroke-width:1.5;"/>
   </g>
   <g id="line2d_3">
    <path clip-path="url(#p3079e57e23)" d="M 216 144 
L 270.279343 144 
" style="fill:none;stroke:#000000;stroke-linecap:square;stroke-width:1.5;"/>
   </g>
   <g id="line2d_4">
    <path clip-path="url(#p3079e57e23)" d="M 188.860328 116.874518 
L 188.860328 77.160055 
" style="fill:none;stroke:#000000;stroke-linecap:square;stroke-width:1.5;"/>
   </g>
   <g id="line2d_5">
    <path clip-path="url(#p3079e57e23)" d="M 188.860328 171.125482 
L 188.860328 210.839945 
" style="fill:none;stroke:#000000;stroke-linecap:square;stroke-width:1.5;"/>
   </g>
   <g id="line2d_6">
    <path clip-path="url(#p3079e57e23)" d="M 168.344665 126.242203 
L 100.817305 67.79237 
" style="fill:none;stroke:#000000;stroke-linecap:square;stroke-width:1.5;"/>
   </g>
   <g id="line2d_7">
    <path clip-path="url(#p3079e57e23)" d="M 212.363973 130.437259 
L 328.194713 63.597314 
" style="fill:none;stroke:#000000;stroke-linecap:square;stroke-width:1.5;"/>
   </g>
   <g id="line2d_8">
    <path clip-path="url(#p3079e57e23)" d="M 328.194713 224.402686 
L 212.363973 157.562741 
" style="fill:none;stroke:#000000;stroke-linecap:square;stroke-width:1.5;"/>
   </g>
   <g id="line2d_9">
    <path clip-path="url(#p3079e57e23)" d="M 338.128523 214.47407 
L 310.988851 167.491357 
" style="fill:none;stroke:#000000;stroke-linecap:square;stroke-width:1.5;"/>
   </g>
   <g id="line2d_10">
    <path clip-path="url(#p3079e57e23)" d="M 324.558687 237.965427 
L 216 237.965427 
" style="fill:none;stroke:#000000;stroke-linecap:square;stroke-width:1.5;"/>
   </g>
   <g id="line2d_11">
    <path clip-path="url(#p3079e57e23)" d="M 351.698358 210.839945 
L 351.698358 77.160055 
" style="fill:none;stroke:#000000;stroke-linecap:square;stroke-width:1.5;"/>
   </g>
   <g id="line2d_12">
    <path clip-path="url(#p3079e57e23)" d="M 100.817305 220.20763 
L 168.344665 161.757797 
" style="fill:none;stroke:#000000;stroke-linecap:square;stroke-width:1.5;"/>
   </g>
   <g id="line2d_13">
    <path clip-path="url(#p3079e57e23)" d="M 107.441313 237.965427 
L 161.720657 237.965427 
" style="fill:none;stroke:#000000;stroke-linecap:square;stroke-width:1.5;"/>
   </g>
   <g id="line2d_14">
    <path clip-path="url(#p3079e57e23)" d="M 270.279343 144 
L 216 144 
" style="fill:none;stroke:#000000;stroke-linecap:square;stroke-width:1.5;"/>
   </g>
   <g id="line2d_15">
    <path clip-path="url(#p3079e57e23)" d="M 310.988851 167.491357 
L 338.128523 214.47407 
" style="fill:none;stroke:#000000;stroke-linecap:square;stroke-width:1.5;"/>
   </g>
   <g id="line2d_16">
    <path clip-path="url(#p3079e57e23)" d="M 310.988851 120.508643 
L 338.128523 73.52593 
" style="fill:none;stroke:#000000;stroke-linecap:square;stroke-width:1.5;"/>
   </g>
   <g id="line2d_17">
    <path clip-path="url(#p3079e57e23)" d="M 188.860328 77.160055 
L 188.860328 116.874518 
" style="fill:none;stroke:#000000;stroke-linecap:square;stroke-width:1.5;"/>
   </g>
   <g id="line2d_18">
    <path clip-path="url(#p3079e57e23)" d="M 188.860328 210.839945 
L 188.860328 171.125482 
" style="fill:none;stroke:#000000;stroke-linecap:square;stroke-width:1.5;"/>
   </g>
   <g id="line2d_19">
    <path clip-path="url(#p3079e57e23)" d="M 216 237.965427 
L 324.558687 237.965427 
" style="fill:none;stroke:#000000;stroke-linecap:square;stroke-width:1.5;"/>
   </g>
   <g id="line2d_20">
    <path clip-path="url(#p3079e57e23)" d="M 161.720657 237.965427 
L 107.441313 237.965427 
" style="fill:none;stroke:#000000;stroke-linecap:square;stroke-width:1.5;"/>
   </g>
   <g id="line2d_21">
    <path clip-path="url(#p3079e57e23)" d="M 100.817305 67.79237 
L 168.344665 126.242203 
" style="fill:none;stroke:#000000;stroke-linecap:square;stroke-width:1.5;"/>
   </g>
   <g id="line2d_22">
    <path clip-path="url(#p3079e57e23)" d="M 328.194713 63.597314 
L 212.363973 130.437259 
" style="fill:none;stroke:#000000;stroke-linecap:square;stroke-width:1.5;"/>
   </g>
   <g id="line2d_23">
    <path clip-path="url(#p3079e57e23)" d="M 351.698358 77.160055 
L 351.698358 210.839945 
" style="fill:none;stroke:#000000;stroke-linecap:square;stroke-width:1.5;"/>
   </g>
   <g id="line2d_24">
    <path clip-path="url(#p3079e57e23)" d="M 338.128523 73.52593 
L 310.988851 120.508643 
" style="fill:none;stroke:#000000;stroke-linecap:square;stroke-width:1.5;"/>
   </g>
   <g id="text_1">
    <!-- 1 -->
    <g transform="translate(181.360328 151.207031)scale(0.3 -0.3)">
     <defs>
      <path d="M 750 3822 
L 1781 4325 
L 1884 4325 
L 1884 747 
Q 1884 391 1914 303 
Q 1944 216 2037 169 
Q 2131 122 2419 116 
L 2419 0 
L 825 0 
L 825 116 
Q 1125 122 1212 167 
Q 1300 213 1334 289 
Q 1369 366 1369 747 
L 1369 3034 
Q 1369 3497 1338 3628 
Q 1316 3728 1258 3775 
Q 1200 3822 1119 3822 
Q 1003 3822 797 3725 
L 750 3822 
z
" id="TimesNewRomanPSMT-31" transform="scale(0.015625)"/>
     </defs>
     <use xlink:href="#TimesNewRomanPSMT-31"/>
    </g>
   </g>
   <g id="text_2">
    <!-- 4 -->
    <g transform="translate(289.919015 151.207031)scale(0.3 -0.3)">
     <defs>
      <path d="M 2978 1563 
L 2978 1119 
L 2409 1119 
L 2409 0 
L 1894 0 
L 1894 1119 
L 100 1119 
L 100 1519 
L 2066 4325 
L 2409 4325 
L 2409 1563 
L 2978 1563 
z
M 1894 1563 
L 1894 3666 
L 406 1563 
L 1894 1563 
z
" id="TimesNewRomanPSMT-34" transform="scale(0.015625)"/>
     </defs>
     <use xlink:href="#TimesNewRomanPSMT-34"/>
    </g>
   </g>
   <g id="text_3">
    <!-- 7 -->
    <g transform="translate(72.801642 57.241604)scale(0.3 -0.3)">
     <defs>
      <path d="M 644 4238 
L 2916 4238 
L 2916 4119 
L 1503 -88 
L 1153 -88 
L 2419 3728 
L 1253 3728 
Q 900 3728 750 3644 
Q 488 3500 328 3200 
L 238 3234 
L 644 4238 
z
" id="TimesNewRomanPSMT-37" transform="scale(0.015625)"/>
     </defs>
     <use xlink:href="#TimesNewRomanPSMT-37"/>
    </g>
   </g>
   <g id="text_4">
    <!-- 5 -->
    <g transform="translate(181.360328 57.241604)scale(0.3 -0.3)">
     <defs>
      <path d="M 2778 4238 
L 2534 3706 
L 1259 3706 
L 981 3138 
Q 1809 3016 2294 2522 
Q 2709 2097 2709 1522 
Q 2709 1188 2573 903 
Q 2438 619 2231 419 
Q 2025 219 1772 97 
Q 1413 -75 1034 -75 
Q 653 -75 479 54 
Q 306 184 306 341 
Q 306 428 378 495 
Q 450 563 559 563 
Q 641 563 702 538 
Q 763 513 909 409 
Q 1144 247 1384 247 
Q 1750 247 2026 523 
Q 2303 800 2303 1197 
Q 2303 1581 2056 1914 
Q 1809 2247 1375 2428 
Q 1034 2569 447 2591 
L 1259 4238 
L 2778 4238 
z
" id="TimesNewRomanPSMT-35" transform="scale(0.015625)"/>
     </defs>
     <use xlink:href="#TimesNewRomanPSMT-35"/>
    </g>
   </g>
   <g id="text_5">
    <!-- 8 -->
    <g transform="translate(344.198358 57.241604)scale(0.3 -0.3)">
     <defs>
      <path d="M 1228 2134 
Q 725 2547 579 2797 
Q 434 3047 434 3316 
Q 434 3728 753 4026 
Q 1072 4325 1600 4325 
Q 2113 4325 2425 4047 
Q 2738 3769 2738 3413 
Q 2738 3175 2569 2928 
Q 2400 2681 1866 2347 
Q 2416 1922 2594 1678 
Q 2831 1359 2831 1006 
Q 2831 559 2490 242 
Q 2150 -75 1597 -75 
Q 994 -75 656 303 
Q 388 606 388 966 
Q 388 1247 577 1523 
Q 766 1800 1228 2134 
z
M 1719 2469 
Q 2094 2806 2194 3001 
Q 2294 3197 2294 3444 
Q 2294 3772 2109 3958 
Q 1925 4144 1606 4144 
Q 1288 4144 1088 3959 
Q 888 3775 888 3528 
Q 888 3366 970 3203 
Q 1053 3041 1206 2894 
L 1719 2469 
z
M 1375 2016 
Q 1116 1797 991 1539 
Q 866 1281 866 981 
Q 866 578 1086 336 
Q 1306 94 1647 94 
Q 1984 94 2187 284 
Q 2391 475 2391 747 
Q 2391 972 2272 1150 
Q 2050 1481 1375 2016 
z
" id="TimesNewRomanPSMT-38" transform="scale(0.015625)"/>
     </defs>
     <use xlink:href="#TimesNewRomanPSMT-38"/>
    </g>
   </g>
   <g id="text_6">
    <!-- 3 -->
    <g transform="translate(72.801642 245.172458)scale(0.3 -0.3)">
     <defs>
      <path d="M 325 3431 
Q 506 3859 782 4092 
Q 1059 4325 1472 4325 
Q 1981 4325 2253 3994 
Q 2459 3747 2459 3466 
Q 2459 3003 1878 2509 
Q 2269 2356 2469 2072 
Q 2669 1788 2669 1403 
Q 2669 853 2319 450 
Q 1863 -75 997 -75 
Q 569 -75 414 31 
Q 259 138 259 259 
Q 259 350 332 419 
Q 406 488 509 488 
Q 588 488 669 463 
Q 722 447 909 348 
Q 1097 250 1169 231 
Q 1284 197 1416 197 
Q 1734 197 1970 444 
Q 2206 691 2206 1028 
Q 2206 1275 2097 1509 
Q 2016 1684 1919 1775 
Q 1784 1900 1550 2001 
Q 1316 2103 1072 2103 
L 972 2103 
L 972 2197 
Q 1219 2228 1467 2375 
Q 1716 2522 1828 2728 
Q 1941 2934 1941 3181 
Q 1941 3503 1739 3701 
Q 1538 3900 1238 3900 
Q 753 3900 428 3381 
L 325 3431 
z
" id="TimesNewRomanPSMT-33" transform="scale(0.015625)"/>
     </defs>
     <use xlink:href="#TimesNewRomanPSMT-33"/>
    </g>
   </g>
   <g id="text_7">
    <!-- 6 -->
    <g transform="translate(181.360328 245.172458)scale(0.3 -0.3)">
     <defs>
      <path d="M 2869 4325 
L 2869 4209 
Q 2456 4169 2195 4045 
Q 1934 3922 1679 3669 
Q 1425 3416 1258 3105 
Q 1091 2794 978 2366 
Q 1428 2675 1881 2675 
Q 2316 2675 2634 2325 
Q 2953 1975 2953 1425 
Q 2953 894 2631 456 
Q 2244 -75 1606 -75 
Q 1172 -75 869 213 
Q 275 772 275 1663 
Q 275 2231 503 2743 
Q 731 3256 1154 3653 
Q 1578 4050 1965 4187 
Q 2353 4325 2688 4325 
L 2869 4325 
z
M 925 2138 
Q 869 1716 869 1456 
Q 869 1156 980 804 
Q 1091 453 1309 247 
Q 1469 100 1697 100 
Q 1969 100 2183 356 
Q 2397 613 2397 1088 
Q 2397 1622 2184 2012 
Q 1972 2403 1581 2403 
Q 1463 2403 1327 2353 
Q 1191 2303 925 2138 
z
" id="TimesNewRomanPSMT-36" transform="scale(0.015625)"/>
     </defs>
     <use xlink:href="#TimesNewRomanPSMT-36"/>
    </g>
   </g>
   <g id="text_8">
    <!-- 2 -->
    <g transform="translate(344.198358 245.172458)scale(0.3 -0.3)">
     <defs>
      <path d="M 2934 816 
L 2638 0 
L 138 0 
L 138 116 
Q 1241 1122 1691 1759 
Q 2141 2397 2141 2925 
Q 2141 3328 1894 3587 
Q 1647 3847 1303 3847 
Q 991 3847 742 3664 
Q 494 3481 375 3128 
L 259 3128 
Q 338 3706 661 4015 
Q 984 4325 1469 4325 
Q 1984 4325 2329 3994 
Q 2675 3663 2675 3213 
Q 2675 2891 2525 2569 
Q 2294 2063 1775 1497 
Q 997 647 803 472 
L 1909 472 
Q 2247 472 2383 497 
Q 2519 522 2628 598 
Q 2738 675 2819 816 
L 2934 816 
z
" id="TimesNewRomanPSMT-32" transform="scale(0.015625)"/>
     </defs>
     <use xlink:href="#TimesNewRomanPSMT-32"/>
    </g>
   </g>
  </g>
 </g>
 <defs>
  <clipPath id="p3079e57e23">
   <rect height="266.4" width="410.4" x="10.8" y="10.8"/>
  </clipPath>
 </defs>
</svg>
